<svg data-v-0dd9719b="" version="1.0" xmlns="http://www.w3.org/2000/svg" xmlns:xlink="http://www.w3.org/1999/xlink" width="100%" height="100%" viewBox="0 0 340.000000 250.000000" preserveAspectRatio="xMidYMid meet" color-interpolation-filters="sRGB" style="margin: auto;"> <rect data-v-0dd9719b="" x="0" y="0" width="100%" height="100%" fill="#fff" fill-opacity="1" class="background"></rect> <rect data-v-0dd9719b="" x="0" y="0" width="100%" height="100%" fill="url(#watermark)" fill-opacity="1" class="watermarklayer"></rect> <g data-v-0dd9719b="" fill="#0284a8" class="icon-text-wrapper icon-svg-group iconsvg" transform="translate(73.8800048828125,94.99579811096191)"><g class="iconsvg-imagesvg" transform="translate(0,0)"><g><rect fill="#0284a8" fill-opacity="0" stroke-width="2" x="0" y="0" width="60" height="60.00840117616467" class="image-rect"></rect> <svg x="0" y="0" width="60" height="60.00840117616467" filtersec="colorsb7822290533" class="image-svg-svg primary" style="overflow: visible;"><svg xmlns="http://www.w3.org/2000/svg" viewBox="0 0 73.41999816894531 73.43000030517578"><g><g fill-rule="evenodd"><path fill="#0284a8" d="M9.68 53.04h41.06v9.11H.57l9.11-9.11zM63.74 20.38H22.69v-9.11h50.16l-9.11 9.11z"></path><path d="M59.87 73.43H9L.68 64.32h50.08l9.11 9.11zM13.56 0h50.86l8.33 9.11H22.67L13.56 0z" fill="#20bad9"></path><path fill="#727b80" d="M11.27.57l9.11 9.11v41.06h-9.11V.57z"></path><path d="M0 59.87V9L9.11.68v50.08L0 59.87z" fill="#8c969c"></path><path fill="#727b80" d="M62.15 72.85l-9.11-9.11V22.69h9.11v50.16z"></path><path d="M73.42 13.56v50.86l-9.11 8.33V22.67l9.11-9.11z" fill="#8c969c"></path></g></g></svg></svg> <!----></g></g> <g transform="translate(67,3.598592758178711)"><g data-gra="path-name" fill-rule="" class="tp-name iconsvg-namesvg" transform="translate(0,0)"><g transform="scale(1)"><g><path d="M1.33 4.76Q2.62 0.76 3.64-3.79 4.67-8.33 4.9-12.1L4.9-12.1 8.43-12.1Q8.14-7.52 7.19-3.07 6.24 1.38 5.1 4.76L5.1 4.76 1.33 4.76ZM5.86-33.33L8.43-25.57 4.86-25.57 2.29-33.33 5.86-33.33ZM4.86-15.14L2.29-22.9 5.86-22.9 8.43-15.14 4.86-15.14ZM18.1-20.33L21.43-20.33 22.86-15.14 19.52-15.14 18.1-20.33ZM22.86-4.33L19.52-4.33 18.1-9.52 21.43-9.52 22.86-4.33ZM12.52-33.33L15.9-33.33Q15.24-31.14 14.86-30.14L14.86-30.14 30.43-30.14 30.43-27.19 13.67-27.19Q13.14-25.86 12.67-25L12.67-25 9.29-25Q11.38-29.19 12.52-33.33L12.52-33.33ZM29.86-21.71L29.86-13.9 31.52-13.9 31.52-10.9 29.86-10.9 29.86-3.43 31.14-3.43 31.14-0.43 29.86-0.43 29.86 1.57Q29.86 3.29 28.88 4.05 27.9 4.81 26.48 4.76L26.48 4.76 23.62 4.76 23 1.76 25.62 1.76Q26 1.76 26.24 1.55 26.48 1.33 26.48 0.9L26.48 0.9 26.48-0.43 14.38-0.43Q12.52-0.43 11.71-1.57 10.9-2.71 11-4.33L11-4.33 11-10.9 9.48-10.9 9.48-13.9 11-13.9 11-24.38 14.38-24.38 26.48-24.38Q28.19-24.38 29.02-23.6 29.86-22.81 29.86-21.71L29.86-21.71ZM14.38-21.38L14.38-13.9 26.48-13.9 26.48-19.62Q26.48-20.62 26-21.05 25.52-21.48 24.81-21.38L24.81-21.38 14.38-21.38ZM26.48-3.43L26.48-10.9 14.38-10.9 14.38-4.95Q14.33-4.33 14.71-3.88 15.1-3.43 15.9-3.43L15.9-3.43 26.48-3.43ZM50.57-33.33L50.57-29.62 63.62-29.62 63.62-26.62 50.57-26.62 50.57-23.05 60.24-23.05Q61.43-23.05 62.26-22.5 63.1-21.95 63.1-20.76L63.1-20.76 63.1 0.76Q63.1 2.71 62.07 3.69 61.05 4.67 59.57 4.76L59.57 4.76 57.62 4.76 57 1.76 58.33 1.76Q58.86 1.81 59.21 1.55 59.57 1.29 59.57 0.57L59.57 0.57 59.57-19.33Q59.57-19.71 59.29-19.88 59-20.05 58.57-20.05L58.57-20.05 38.05-20.05 38.05 4.76 34.67 4.76 34.67-20.05 34.67-23.05 34.67-23.05 38.05-23.05 38.05-23.05 47.19-23.05 47.19-26.62 34.19-26.62 34.19-29.62 47.19-29.62 47.19-33.33 50.57-33.33ZM47.19-6.19L47.19-10.33 39.67-10.33 39.67-13.29 50.9-13.29 52.67-19 56.24-19 54.48-13.29 58.14-13.29 58.14-10.33 50.57-10.33 50.57-6.19 58.81-6.19 58.81-3.19 50.57-3.19 50.57 4.62 47.19 4.62 47.19-3.19 38.95-3.19 38.95-6.19 47.19-6.19ZM44.38-19L45.9-14.29 42.38-14.29 40.86-19 44.38-19ZM66.29 4.71Q70.52 0.33 73.93-4.83 77.33-10 78.33-14.48L78.33-14.48 67.05-14.48 67.05-17.48 78.71-17.48 78.71-17.57 78.71-29.14 69.1-29.14 69.1-32.14 92.62-32.14 92.62-29.14 82.29-29.14 82.29-17.48 94.67-17.48 94.67-14.48 82.05-14.48Q82-14.1 81.67-12.95L81.67-12.95 83.9-12.95Q85.29-8.57 88.5-3.83 91.71 0.9 95.38 4.71L95.38 4.71 90.95 4.71Q88.19 1.81 85.48-2.38 82.76-6.57 81.1-11.19L81.1-11.19Q79.67-7.19 76.71-2.95 73.76 1.29 70.48 4.71L70.48 4.71 66.29 4.71ZM108.67 4.57L104.43 4.57 103.81 1.57 107.29 1.57Q107.86 1.62 108.26 1.29 108.67 0.95 108.67 0.24L108.67 0.24 108.67-27.05Q108.67-28.1 108.19-28.55 107.71-29 107-29L107-29 98.57-29 98.57-32.14 108.67-32.14Q110.14-32.1 111.17-31.33 112.19-30.57 112.19-29L112.19-29 112.19 0.9Q112.19 2.76 111.17 3.67 110.14 4.57 108.67 4.57L108.67 4.57ZM126.57 0.9Q126.57 2.76 125.55 3.67 124.52 4.57 123.05 4.57L123.05 4.57 118.81 4.57 118.19 1.57 121.67 1.57Q122.24 1.62 122.64 1.29 123.05 0.95 123.05 0.24L123.05 0.24 123.05-27.05Q123.05-28.1 122.57-28.55 122.1-29 121.38-29L121.38-29 112.9-29 112.9-32.14 123.05-32.14Q124.52-32.1 125.55-31.33 126.57-30.57 126.57-29L126.57-29 126.57 0.9ZM102.29-26.24L104.86-16.05 101.48-16.05 98.95-26.24 102.29-26.24ZM98.05 1.67Q99.14-1.81 100.12-6.1 101.1-10.38 101.52-14.29L101.52-14.29 104.86-14.29Q104.33-9.62 103.43-5.43 102.52-1.24 101.62 1.67L101.62 1.67 98.05 1.67ZM117.33-26.24L119.9-16.05 116.57-16.05 114-26.24 117.33-26.24ZM113.1 1.67Q114.19-1.81 115.17-6.1 116.14-10.38 116.57-14.29L116.57-14.29 119.9-14.29Q119.38-9.62 118.5-5.43 117.62-1.24 116.67 1.67L116.67 1.67 113.1 1.67Z" transform="translate(-1.3300000429153442, 33.33000183105469)"></path></g> <!----> <!----> <!----> <!----> <!----> <!----> <!----></g></g> <g data-gra="path-slogan" fill-rule="" class="tp-slogan iconsvg-slogansvg" fill="#0284a8" transform="translate(17.384998321533203,44.09309005737305)"><!----> <!----> <g transform="scale(1, 1)"><g transform="scale(1)"><path d="M2.06-5.06L6.56-5.06L6.56-8.58L7.73-8.58L7.73 0L6.56 0L6.56-3.98L2.06-3.98L2.06 0L0.89 0L0.89-8.58L2.06-8.58L2.06-5.06ZM15.19 0L14.34-2.48L10.88-2.48L9.98 0L8.81 0L12.05-8.58L13.36-8.58L16.45 0L15.19 0ZM12.61-7.31L11.25-3.52L13.92-3.52L12.66-7.31L12.61-7.31ZM17.67-8.58L18.84-8.58L18.84 0L17.67 0L17.67-8.58ZM22.22-8.58L26.53-1.64L26.53-8.58L27.66-8.58L27.66 0L26.34 0L21.98-6.94L21.94-6.94L21.94 0L20.81 0L20.81-8.58L22.22-8.58ZM35.11 0L34.27-2.48L30.80-2.48L29.91 0L28.73 0L31.97-8.58L33.28-8.58L36.38 0L35.11 0ZM32.53-7.31L31.17-3.52L33.84-3.52L32.58-7.31L32.53-7.31ZM38.81-8.58L43.13-1.64L43.13-8.58L44.25-8.58L44.25 0L42.94 0L38.58-6.94L38.53-6.94L38.53 0L37.41 0L37.41-8.58L38.81-8.58ZM51.56-7.59L48.66-7.59L48.66-8.58L55.59-8.58L55.59-7.59L52.69-7.59L52.69 0L51.56 0L51.56-7.59ZM56.81-8.58L57.98-8.58L57.98 0L56.81 0L56.81-8.58ZM65.63 0L64.78-2.48L61.31-2.48L60.42 0L59.25 0L62.48-8.58L63.80-8.58L66.89 0L65.63 0ZM63.05-7.31L61.69-3.52L64.36-3.52L63.09-7.31L63.05-7.31ZM69.33-8.58L73.64-1.64L73.64-8.58L74.77-8.58L74.77 0L73.45 0L69.09-6.94L69.05-6.94L69.05 0L67.92 0L67.92-8.58L69.33-8.58ZM83.48-8.58L80.25-3.47L80.25 0L79.08 0L79.08-3.47L75.84-8.58L77.20-8.58L79.64-4.45L82.13-8.58L83.48-8.58ZM90.19-3.19L90.19-8.58L91.36-8.58L91.36-3.05Q91.22 0.05 87.84 0.14L87.84 0.14Q84.70 0.05 84.56-2.86L84.56-2.86L84.56-8.58L85.73-8.58L85.73-3.19Q85.78-0.84 87.89-0.80L87.89-0.80Q90.19-0.84 90.19-3.19L90.19-3.19Z" transform="translate(-0.890625, 8.578125)"></path></g></g></g></g></g><defs v-gra="od"></defs></svg>